<svg version="1.1" xmlns="http://www.w3.org/2000/svg" style="display: block;" viewBox="0 0 2048 2048" width="1024" height="1024" preserveAspectRatio="none">
<path transform="translate(0,0)" fill="rgb(255,255,255)" d="M 0 0 L 2048 0 L 2048 2048 L 0 2048 L 0 0 z"/>
<path transform="translate(0,0)" fill="rgb(22,73,119)" d="M 823.585 793.096 C 819.138 800.249 813.901 806.732 805.1 808.371 C 766.671 815.53 758.837 761.582 794.537 753.621 C 806.576 750.936 817.186 760.307 823.863 769.666 C 880.228 770.362 937.115 769.17 993.532 769.715 C 1058.75 770.345 1096.18 761.441 1152.24 802.382 C 1184.86 810.122 1217.47 834.853 1235.01 863.46 C 1253.89 894.873 1259.57 932.487 1250.81 968.077 C 1245.21 990.672 1235.76 1006.33 1220.97 1023.77 C 1330.8 1108.44 1290.31 1278.53 1154.8 1300.88 C 1149.54 1301.75 1141.88 1301.92 1136.53 1301.9 C 1114.7 1301.84 1092.85 1302.04 1071.03 1301.85 C 1025.4 1301.47 979.681 1302.2 934.056 1301.68 L 933.827 1177.82 L 914.779 1177.61 C 914.541 1197.15 915.862 1228.79 914.409 1247.16 C 931.246 1259.42 937.21 1281.55 918.776 1295.27 C 912.446 1300.01 904.45 1301.94 896.658 1300.61 C 871.065 1296.33 865.513 1262.5 891.19 1247.73 L 891.097 1177.49 L 878.878 1174.08 L 869.301 1186.42 L 869.335 1202.06 C 883.07 1213.46 888.607 1230.88 872.697 1243.28 C 867.186 1247.59 860.148 1249.45 853.226 1248.43 C 830.811 1245.11 825.265 1216.12 846.936 1201.67 C 846.896 1193.7 846.545 1185.73 845.884 1177.78 C 850.604 1173.11 852.689 1171.16 856.518 1165.7 C 851.135 1162.55 845.566 1158.63 840.343 1155.12 C 835.11 1160.86 829.825 1166.55 824.489 1172.19 C 825.215 1196.06 824.4 1223.3 824.128 1247.39 C 840.394 1260.43 847.192 1281.55 827.639 1295.21 C 821.239 1299.74 813.255 1301.43 805.566 1299.89 C 780.121 1294.89 775.699 1261.54 800.986 1247.07 L 801.018 1163.75 C 809.189 1155.99 816.396 1148.38 824.138 1140.21 C 821.528 1137.14 819.177 1133.83 816.905 1130.5 C 801.263 1107.38 795.451 1079 800.749 1051.6 C 807.308 1018.56 826.949 996.679 854.18 978.651 L 845.187 969.671 C 845.538 960.276 845.688 950.875 845.637 941.473 C 839.137 935.074 833.862 928.172 833.84 918.57 C 833.854 912.426 836.331 906.543 840.717 902.24 C 845.663 897.409 852.357 894.79 859.268 894.983 C 874.031 895.285 883.74 907.466 882.606 922.038 C 881.958 930.362 876.219 936.33 870.045 941.401 C 869.679 967.057 864.14 971.245 891.228 966.514 L 891.633 881.35 L 824.258 881.807 C 811.36 896.81 791.978 905.238 777.491 886.774 C 772.513 880.464 770.393 872.362 771.644 864.422 C 774.124 848.02 788.14 838.521 804.703 841.691 C 813.896 843.451 819.208 850.35 823.849 857.944 L 923.994 857.997 C 931.583 852.683 940.966 850.586 950.095 852.164 C 954.734 852.996 959.518 854.965 963.187 857.962 L 972.97 857.789 C 990.383 848.676 1083.75 859.034 1102.06 851.833 C 1078.24 834.513 1054.78 836.89 1027.11 836.975 L 960.957 837.244 C 953.443 847.436 938.148 846.175 930.072 837.235 C 914.165 836.659 895.88 837.092 879.795 837.102 C 869.368 850.303 853.751 857.055 840.873 842.539 C 835.951 836.957 833.56 829.587 834.27 822.179 C 836.454 798.543 864.375 793.114 879.308 813.736 C 892.109 813.862 904.911 813.773 917.708 813.468 C 921.354 803.855 923.449 799.761 931.184 793.179 L 823.585 793.096 z"/>
<path transform="translate(0,0)" fill="rgb(249,198,45)" d="M 1152.24 802.382 C 1184.86 810.122 1217.47 834.853 1235.01 863.46 C 1253.89 894.873 1259.57 932.487 1250.81 968.077 C 1245.21 990.672 1235.76 1006.33 1220.97 1023.77 C 1330.8 1108.44 1290.31 1278.53 1154.8 1300.88 C 1149.54 1301.75 1141.88 1301.92 1136.53 1301.9 C 1114.7 1301.84 1092.85 1302.04 1071.03 1301.85 C 1025.4 1301.47 979.681 1302.2 934.056 1301.68 L 933.827 1177.82 L 957.145 1177.82 L 978.592 1177.82 L 1002.3 1177.64 L 1023.61 1177.67 C 1029.25 1177.65 1042.79 1177.97 1047.82 1177.34 C 1052.34 1180.43 1054.52 1184.69 1058.94 1188.51 C 1074.07 1195.4 1081.34 1191.77 1096.66 1187.29 C 1119.87 1179.65 1160.95 1169.56 1149.78 1134.8 C 1145.19 1120.52 1130.27 1114.22 1117.67 1108.39 C 1091.55 1097.63 1070.37 1084.28 1048.66 1109.96 C 1011.07 1109.42 971.579 1109.36 933.933 1109.59 C 934.485 1101.32 934.134 1087.1 934.159 1078.41 L 957.664 1078.38 L 1027.11 1078.25 C 1072.28 1078.1 1086.7 1079.42 1128.59 1060.26 C 1142.55 1051.5 1150.96 1045.66 1163.35 1034.49 C 1216.43 981.114 1220.09 918.093 1192.29 851.205 C 1179.1 829.297 1170.98 819.418 1152.24 802.382 z"/>
<path transform="translate(0,0)" fill="rgb(255,255,255)" d="M 957.664 1078.38 L 1027.11 1078.25 C 1072.28 1078.1 1086.7 1079.42 1128.59 1060.26 C 1136.29 1062.83 1144.94 1063.39 1153.01 1065.61 C 1175.09 1071.7 1194.1 1088.34 1204.69 1108.41 C 1215.68 1128.98 1217.81 1153.15 1210.57 1175.32 C 1203.71 1196.97 1188.35 1214.9 1168.01 1225 C 1160.77 1228.66 1153 1231.15 1144.98 1232.37 C 1134.31 1233.94 1119.27 1233.42 1108.13 1233.38 C 1088.02 1233.21 1067.92 1233.2 1047.81 1233.35 L 1047.78 1212.51 C 1064.93 1212.11 1082.17 1212.4 1099.32 1212.55 C 1127.28 1212.78 1153.82 1215.78 1175.11 1193.71 C 1186.87 1181.38 1193.33 1164.93 1193.1 1147.89 C 1192.79 1130.25 1185.45 1113.46 1172.71 1101.25 C 1155.06 1084.52 1137.85 1082.49 1114.56 1082.91 C 1101.29 1083.15 1087.49 1083 1074.18 1083.01 C 1036.35 1082.9 998.527 1083.02 960.702 1083.4 C 957.329 1083.46 958.002 1082.04 957.664 1078.38 z"/>
<path transform="translate(0,0)" fill="rgb(255,255,255)" d="M 1192.29 851.205 C 1198.23 854.639 1205.3 862.393 1209.4 867.933 C 1247.2 919.052 1234.04 993.082 1179.77 1026.89 C 1174.27 1030.32 1169.7 1032.84 1163.35 1034.49 C 1216.43 981.114 1220.09 918.093 1192.29 851.205 z"/>
<path transform="translate(0,0)" fill="rgb(255,255,255)" d="M 957.145 1177.82 L 978.592 1177.82 C 978.893 1191.29 978.974 1204.76 978.834 1218.23 C 977.851 1219.01 976.885 1219.82 975.937 1220.64 C 969.308 1226.44 964.956 1232.97 964.574 1242.06 C 964.254 1249.49 967.062 1256.7 972.314 1261.96 C 977.256 1266.86 983.988 1269.52 990.945 1269.33 C 1001.43 1269.02 1006.96 1263.81 1013.56 1256.84 L 1024.22 1257.12 C 1024.32 1263.96 1024.13 1271.17 1024.05 1278.04 L 957.875 1278.09 C 956.771 1246 957.349 1210.17 957.145 1177.82 z"/>
<path transform="translate(0,0)" fill="rgb(255,255,255)" d="M 1117.67 1108.39 C 1131.13 1105.05 1148 1108.69 1156.54 1118.53 C 1186.72 1153.31 1159.74 1194.3 1116.07 1188.61 C 1110.02 1187.83 1102.77 1188.64 1096.66 1187.29 C 1119.87 1179.65 1160.95 1169.56 1149.78 1134.8 C 1145.19 1120.52 1130.27 1114.22 1117.67 1108.39 z"/>
<path transform="translate(0,0)" fill="rgb(255,255,255)" d="M 1002.3 1177.64 L 1023.61 1177.67 L 1023.66 1189.12 L 1002.4 1189.2 L 1002.3 1177.64 z"/>
<path transform="translate(0,0)" fill="rgb(255,255,255)" d="M 1047.82 1177.34 C 1052.34 1180.43 1054.52 1184.69 1058.94 1188.51 C 1054.12 1189.11 1051.79 1189.9 1048.03 1187.33 C 1046.6 1183.76 1047.35 1181.2 1047.82 1177.34 z"/>
<path transform="translate(0,0)" fill="rgb(255,255,255)" d="M 1202.99 1039.89 C 1209.51 1043.96 1215.05 1048.55 1220.53 1053.95 C 1245.99 1079.01 1260.26 1113.29 1260.09 1149.01 C 1260.41 1183.84 1246.65 1217.33 1221.92 1241.87 C 1185.61 1277.63 1153.75 1278.45 1107.38 1278.23 L 1049.9 1278.03 C 1049.23 1277.87 1048.71 1277.34 1048.13 1276.96 C 1047.29 1271.91 1047.58 1262.68 1047.59 1257.24 C 1067.02 1257 1090.02 1256.39 1109.28 1257.29 C 1155.06 1259.43 1193.01 1250.47 1220.21 1209.25 C 1236.42 1184.36 1242.02 1154.02 1235.75 1124.98 C 1228.63 1091.77 1209.81 1070.4 1182.15 1052.53 C 1189.55 1048.66 1196 1044.39 1202.99 1039.89 z"/>
<path transform="translate(0,0)" fill="rgb(255,255,255)" d="M 988.329 1232.5 C 994.345 1231.07 1000.38 1234.78 1001.82 1240.79 C 1003.27 1246.81 999.567 1252.85 993.558 1254.31 C 987.529 1255.77 981.461 1252.05 980.015 1246.02 C 978.569 1239.99 982.294 1233.93 988.329 1232.5 z"/>
<path transform="translate(0,0)" fill="rgb(255,255,255)" d="M 1001.06 1212.99 L 1023.9 1213 L 1023.97 1233.32 C 1018.29 1233.45 1017.51 1233.99 1013.58 1230.27 L 1012.58 1229.31 C 1008.01 1224.98 1001.67 1219.26 1001.06 1212.99 z"/>
<path transform="translate(0,0)" fill="rgb(255,255,255)" d="M 934 1154.35 C 899.838 1154.46 873.231 1156.4 846.628 1129.96 C 830.959 1114.57 822.198 1093.49 822.344 1071.53 C 822.352 1049.4 831.428 1028.23 847.458 1012.97 C 875.089 986.364 899.218 988.528 934.142 988.965 L 934.006 1010.13 C 906.461 1009.99 883.545 1007 862.418 1028.04 C 850.693 1039.75 844.153 1055.67 844.258 1072.24 C 844.436 1088.85 851.308 1104.68 863.316 1116.15 C 884.298 1136.29 907.25 1133.28 934.135 1133.11 L 934 1154.35 z"/>
<path transform="translate(0,0)" fill="rgb(249,198,45)" d="M 931.184 793.179 C 940.44 793.106 950.231 792.858 959.442 793.039 C 990.718 793.044 1074.1 789.807 1098.32 800.105 C 1112.52 804.634 1131.09 815.342 1142.02 825.38 C 1129.88 824.172 1116.16 823.372 1104.06 824.876 C 1076.13 812.571 1059.41 813.338 1029.54 813.283 C 1005.59 813.238 980.183 814.095 956.393 813.027 C 948.825 813.283 941.137 813.147 933.555 813.092 C 929.118 813.517 922.331 813.403 917.708 813.468 C 921.354 803.855 923.449 799.761 931.184 793.179 z"/>
<path transform="translate(0,0)" fill="rgb(255,255,255)" d="M 959.442 793.039 C 990.718 793.044 1074.1 789.807 1098.32 800.105 C 1092.03 801.422 1065.11 801.199 1057.03 801.277 C 1027.23 801.693 997.43 801.823 967.632 801.666 L 959.442 793.039 z"/>
<path transform="translate(0,0)" fill="rgb(255,255,255)" d="M 943.385 805.823 C 948.333 808.148 952.011 809.647 956.393 813.027 C 948.825 813.283 941.137 813.147 933.555 813.092 C 937.53 809.482 938.777 808.596 943.385 805.823 z"/>
<path transform="translate(0,0)" fill="rgb(249,198,45)" d="M 1135.88 849.337 C 1153.16 853.495 1157.89 856.069 1172.77 866.367 C 1188.07 897.83 1190.36 934.051 1179.14 967.189 C 1174.17 981.472 1165 998.096 1154.69 1009.26 C 1142.9 1011.04 1132.36 1012.61 1120.32 1012.47 C 1131.18 1003.5 1137.32 996.723 1146.28 985.794 C 1166.6 949.532 1168.51 925.041 1157.53 884.685 C 1150.74 869.942 1146.09 861.838 1135.88 849.337 z"/>
<path transform="translate(0,0)" fill="rgb(255,255,255)" d="M 1157.53 884.685 C 1171.5 895.81 1179.85 909.074 1182.17 927.035 C 1185.33 951.525 1170.91 978.881 1146.28 985.794 C 1166.6 949.532 1168.51 925.041 1157.53 884.685 z"/>
<path transform="translate(0,0)" fill="rgb(255,255,255)" d="M 1060.74 1132.94 C 1068.31 1106.15 1075.46 1112.03 1099.5 1120.09 C 1111.13 1123.99 1140.9 1134.67 1130.27 1151.8 C 1123.36 1162.38 1099.49 1167.12 1087.85 1171 C 1068.91 1177.31 1067.13 1170.96 1060.14 1155.01 L 1046.97 1154.93 L 1047.09 1132.99 L 1060.74 1132.94 z"/>
<path transform="translate(0,0)" fill="rgb(22,73,119)" d="M 1096.49 1133.64 C 1101.89 1131.89 1107.69 1134.79 1109.53 1140.15 C 1111.38 1145.51 1108.59 1151.37 1103.26 1153.31 C 1099.73 1154.61 1095.77 1153.89 1092.91 1151.43 C 1090.06 1148.98 1088.75 1145.18 1089.49 1141.49 C 1090.23 1137.8 1092.91 1134.79 1096.49 1133.64 z"/>
<path transform="translate(0,0)" fill="rgb(255,255,255)" d="M 1120.32 1012.47 C 1132.36 1012.61 1142.9 1011.04 1154.69 1009.26 C 1108.48 1061.26 1066.61 1054.49 1003 1054.74 L 1002.74 1033.28 C 1033.73 1033.34 1072.54 1036.56 1100.54 1024.03 C 1104.95 1022.06 1115.45 1015.38 1120.32 1012.47 z"/>
<path transform="translate(0,0)" fill="rgb(255,255,255)" d="M 1099.3 875.121 C 1108.5 875.238 1117.7 875.417 1126.85 876.547 C 1147.86 912.408 1146.05 964.135 1110.12 989.664 C 1098.44 989.83 1067.37 990.936 1057.9 988.486 C 1072.74 987.836 1086.54 983.117 1097.88 973.373 C 1110.88 962.072 1118.77 946.001 1119.75 928.804 C 1121.19 906.687 1113.52 891.124 1099.3 875.121 z"/>
<path transform="translate(0,0)" fill="rgb(255,255,255)" d="M 890.81 1107.75 C 886.842 1105.34 882.835 1103.01 879.524 1099.72 C 871.949 1092.23 867.717 1082 867.789 1071.35 C 867.856 1061.22 871.488 1052.1 878.746 1044.94 C 893.337 1030.55 915.007 1033.64 933.98 1033.97 C 933.989 1040.4 934.232 1048.51 933.956 1054.79 L 891.124 1054.79 C 891.231 1072.44 891.126 1090.1 890.81 1107.75 z"/>
<path transform="translate(0,0)" fill="rgb(249,198,45)" d="M 1024.1 988.846 C 1035.55 988.89 1046.45 988.913 1057.9 988.486 C 1067.37 990.936 1098.44 989.83 1110.12 989.664 C 1081.15 1012.69 1058.98 1010.24 1023.93 1010.03 L 1024.1 988.846 z"/>
<path transform="translate(0,0)" fill="rgb(249,198,45)" d="M 1102.06 851.833 C 1111.61 858.788 1120.41 866.503 1126.85 876.547 C 1117.7 875.417 1108.5 875.238 1099.3 875.121 C 1074.28 854.899 1056.95 857.6 1026.19 857.731 C 1008.45 857.914 990.708 857.933 972.97 857.789 C 990.383 848.676 1083.75 859.034 1102.06 851.833 z"/>
<path transform="translate(0,0)" fill="rgb(255,255,255)" d="M 1104.06 824.876 C 1116.16 823.372 1129.88 824.172 1142.02 825.38 C 1155.42 837.39 1165.52 849.775 1172.77 866.367 C 1157.89 856.069 1153.16 853.495 1135.88 849.337 C 1123.94 838.505 1117.97 833.328 1104.06 824.876 z"/>
<path transform="translate(0,0)" fill="rgb(255,255,255)" d="M 914.9 1078.14 C 921.32 1078.19 927.74 1078.28 934.159 1078.41 C 934.134 1087.1 934.485 1101.32 933.933 1109.59 L 914.833 1109.8 L 914.9 1078.14 z"/>
<path transform="translate(0,0)" fill="rgb(249,198,45)" d="M 978.914 1133.04 L 1002.02 1133.03 L 1002.04 1154.64 C 994.184 1154.65 986.326 1154.6 978.469 1154.48 C 978.894 1147.99 978.804 1139.68 978.914 1133.04 z"/>
<path transform="translate(0,0)" fill="rgb(249,198,45)" d="M 978.924 1033.65 C 986.51 1033.76 995.077 1033.41 1002.74 1033.28 L 1003 1054.74 L 978.85 1054.85 L 978.924 1033.65 z"/>
<path transform="translate(0,0)" fill="rgb(249,198,45)" d="M 1023.89 1133.02 L 1047.09 1132.99 L 1046.97 1154.93 L 1023.41 1154.77 C 1023.82 1147.96 1023.77 1139.93 1023.89 1133.02 z"/>
<path transform="translate(0,0)" fill="rgb(249,198,45)" d="M 978.861 988.816 L 1002.14 988.796 C 1002.34 995.418 1002.79 1003.56 1002.43 1010.04 L 978.626 1010.09 L 978.861 988.816 z"/>
<path transform="translate(0,0)" fill="rgb(249,198,45)" d="M 933.98 1033.97 L 957.878 1033.76 L 957.735 1054.84 L 933.956 1054.79 C 934.232 1048.51 933.989 1040.4 933.98 1033.97 z"/>
<path transform="translate(0,0)" fill="rgb(249,198,45)" d="M 934.142 988.965 L 957.344 988.83 C 957.513 995.558 957.917 1003.52 957.424 1010.12 L 934.006 1010.13 L 934.142 988.965 z"/>
<path transform="translate(0,0)" fill="rgb(249,198,45)" d="M 934.135 1133.11 L 957.087 1133.03 L 957.117 1154.41 L 934 1154.35 L 934.135 1133.11 z"/>
<path transform="translate(0,0)" fill="rgb(255,255,255)" d="M 1002.02 1133.03 L 1023.89 1133.02 C 1023.77 1139.93 1023.82 1147.96 1023.41 1154.77 L 1002.04 1154.64 L 1002.02 1133.03 z"/>
<path transform="translate(0,0)" fill="rgb(255,255,255)" d="M 957.087 1133.03 L 978.914 1133.04 C 978.804 1139.68 978.894 1147.99 978.469 1154.48 C 971.436 1154.59 964.171 1154.45 957.117 1154.41 L 957.087 1133.03 z"/>
<path transform="translate(0,0)" fill="rgb(255,255,255)" d="M 1002.14 988.796 C 1009.36 988.773 1016.92 988.635 1024.1 988.846 L 1023.93 1010.03 L 1002.43 1010.04 C 1002.79 1003.56 1002.34 995.418 1002.14 988.796 z"/>
<path transform="translate(0,0)" fill="rgb(255,255,255)" d="M 957.344 988.83 L 978.861 988.816 L 978.626 1010.09 L 957.424 1010.12 C 957.917 1003.52 957.513 995.558 957.344 988.83 z"/>
<path transform="translate(0,0)" fill="rgb(255,255,255)" d="M 957.878 1033.76 C 964.828 1033.65 971.996 1033.44 978.924 1033.65 L 978.85 1054.85 L 957.735 1054.84 L 957.878 1033.76 z"/>
<path transform="translate(0,0)" fill="rgb(249,198,45)" d="M 923.994 857.997 C 931.583 852.683 940.966 850.586 950.095 852.164 C 954.734 852.996 959.518 854.965 963.187 857.962 C 950.267 857.746 936.951 857.945 923.994 857.997 z"/>
<path transform="translate(0,0)" fill="rgb(249,198,45)" d="M 930.072 837.235 C 939.98 837.2 951.151 836.902 960.957 837.244 C 953.443 847.436 938.148 846.175 930.072 837.235 z"/>
<path transform="translate(0,0)" fill="rgb(249,198,45)" d="M 915.173 965.541 C 915.134 955.881 913.834 884.752 916.586 881.313 L 919.714 881.646 C 934.342 881.333 953.786 880.709 968.307 881.578 C 969.99 881.169 976.817 881.281 978.96 881.266 L 1002.05 881.275 L 1023.98 881.344 L 1047.61 881.549 C 1062.74 881.775 1074.24 882.636 1085.31 894.365 C 1107.15 917.48 1096.2 958.395 1063.9 964.307 C 1058.39 965.318 1053.42 965.208 1047.93 965.202 L 1023.74 965.158 L 1002.16 965.167 L 978.787 965.135 L 957.63 965.285 L 933.952 965.254 L 915.173 965.541 z"/>
<path transform="translate(0,0)" fill="rgb(249,198,45)" d="M 915.173 965.541 C 915.134 955.881 913.834 884.752 916.586 881.313 L 919.714 881.646 C 934.342 881.333 953.786 880.709 968.307 881.578 C 969.99 881.169 976.817 881.281 978.96 881.266 C 978.884 908.783 979.318 937.735 978.787 965.135 L 957.63 965.285 L 933.952 965.254 L 915.173 965.541 z"/>
<path transform="translate(0,0)" fill="rgb(255,255,255)" d="M 968.307 881.578 C 969.99 881.169 976.817 881.281 978.96 881.266 C 978.884 908.783 979.318 937.735 978.787 965.135 L 957.63 965.285 C 957.73 941.401 957.564 917.516 957.131 893.636 C 961.349 889.467 964.426 886.026 968.307 881.578 z"/>
<path transform="translate(0,0)" fill="rgb(255,255,255)" d="M 915.173 965.541 C 915.134 955.881 913.834 884.752 916.586 881.313 L 919.714 881.646 C 924.493 887.532 927.858 890.894 933.983 895.58 C 933.993 918.473 934.359 942.447 933.952 965.254 L 915.173 965.541 z"/>
<path transform="translate(0,0)" fill="rgb(255,255,255)" d="M 1047.61 881.549 C 1062.74 881.775 1074.24 882.636 1085.31 894.365 C 1107.15 917.48 1096.2 958.395 1063.9 964.307 C 1058.39 965.318 1053.42 965.208 1047.93 965.202 C 1047.69 939.307 1046.53 906.933 1047.61 881.549 z"/>
<path transform="translate(0,0)" fill="rgb(249,198,45)" d="M 1023.98 881.344 L 1047.61 881.549 C 1046.53 906.933 1047.69 939.307 1047.93 965.202 L 1023.74 965.158 C 1024.8 939.522 1023.84 907.71 1023.98 881.344 z"/>
<path transform="translate(0,0)" fill="rgb(255,255,255)" d="M 1002.05 881.275 L 1023.98 881.344 C 1023.84 907.71 1024.8 939.522 1023.74 965.158 L 1002.16 965.167 C 1002.32 937.203 1002.29 909.238 1002.05 881.275 z"/>
<path transform="translate(0,0)" fill="rgb(255,255,255)" d="M 899.508 1261.59 C 905.75 1260.24 911.941 1264.07 913.513 1270.26 C 915.086 1276.45 911.476 1282.77 905.347 1284.57 C 901.182 1285.79 896.684 1284.63 893.618 1281.56 C 890.553 1278.49 889.409 1273.99 890.637 1269.83 C 891.864 1265.66 895.267 1262.5 899.508 1261.59 z"/>
<path transform="translate(0,0)" fill="rgb(255,255,255)" d="M 795.506 857.485 C 801.812 855.819 808.274 859.582 809.937 865.888 C 811.6 872.195 807.834 878.655 801.526 880.315 C 795.224 881.973 788.769 878.21 787.108 871.909 C 785.446 865.607 789.205 859.151 795.506 857.485 z"/>
<path transform="translate(0,0)" fill="rgb(255,255,255)" d="M 796.906 769.557 C 803.257 768.676 809.139 773.054 810.118 779.39 C 811.097 785.727 806.81 791.676 800.49 792.753 C 796.313 793.464 792.078 791.87 789.407 788.581 C 786.737 785.292 786.046 780.82 787.599 776.878 C 789.153 772.937 792.71 770.139 796.906 769.557 z"/>
<path transform="translate(0,0)" fill="rgb(255,255,255)" d="M 808.396 1261.51 C 814.634 1259.82 821.057 1263.51 822.745 1269.75 C 824.433 1275.98 820.746 1282.41 814.51 1284.1 C 808.27 1285.79 801.841 1282.1 800.152 1275.86 C 798.464 1269.62 802.155 1263.19 808.396 1261.51 z"/>
<path transform="translate(0,0)" fill="rgb(255,255,255)" d="M 856.36 1213.61 C 862.047 1212.94 867.241 1216.9 868.093 1222.57 C 868.944 1228.23 865.145 1233.54 859.511 1234.57 C 855.708 1235.26 851.829 1233.83 849.388 1230.83 C 846.947 1227.84 846.332 1223.75 847.783 1220.16 C 849.234 1216.58 852.521 1214.07 856.36 1213.61 z"/>
<path transform="translate(0,0)" fill="rgb(255,255,255)" d="M 853.8 909.496 C 857.238 907.972 861.234 908.44 864.226 910.718 C 867.219 912.996 868.734 916.723 868.18 920.443 C 867.626 924.163 865.091 927.286 861.565 928.594 C 856.341 930.531 850.524 927.969 848.426 922.808 C 846.328 917.648 848.707 911.754 853.8 909.496 z"/>
<path transform="translate(0,0)" fill="rgb(255,255,255)" d="M 854.469 815.494 C 859.735 813.729 865.449 816.474 867.364 821.687 C 869.279 826.901 866.7 832.692 861.544 834.756 C 858.074 836.145 854.124 835.538 851.231 833.172 C 848.338 830.805 846.96 827.054 847.633 823.377 C 848.306 819.701 850.925 816.681 854.469 815.494 z"/>
</svg>
